<?xml version="1.0" encoding="utf-8"?>
<!-- Generator: Adobe Illustrator 21.0.0, SVG Export Plug-In . SVG Version: 6.00 Build 0)  -->
<svg version="1.1" id="squar2414" xmlns="http://www.w3.org/2000/svg" xmlns:xlink="http://www.w3.org/1999/xlink" x="0px" y="0px"
	 viewBox="0 0 1200 296.9" style="enable-background:new 0 0 1200 296.9;" xml:space="preserve">
<style type="text/css">
	.st0{fill:#FFFFFF;}
	.st1{fill:#2A2A2A;}
	.st2{fill:#069BD7;}
	.st3{fill:#3A3A6B;}
	.st4{fill:#BDE5F1;}
</style>
<rect class="st0" width="1200" height="297"/>
<title>CE_PieChart_EnergyCostBreakdown</title>
<g>
	<path class="st1" d="M584.8,16.8V4h-3.5V0h11.5v4h-3.5v12.8H584.8L584.8,16.8z"/>
	<path class="st1" d="M592.8,10.1c0-3.7,2.8-7.1,6.5-7.1c1.5,0,2.9,0.5,3.9,1.6V3.3h4v13.5h-4.1v-1.3c-1.1,1-2.5,1.6-4,1.6
		C595.3,17.1,592.8,14.4,592.8,10.1z M600.1,6.8c-1.7-0.1-3.1,1.3-3.2,3c0,0.1,0,0.1,0,0.2c-0.2,1.7,1.1,3.2,2.8,3.4
		c0.1,0,0.2,0,0.3,0c1.8,0.1,3.2-1.3,3.3-3.1c0-0.1,0-0.1,0-0.2c0.1-1.8-1.3-3.2-3.1-3.3C600.2,6.8,600.1,6.8,600.1,6.8z"/>
	<path class="st1" d="M608.9,3.3h5l2.4,3.6l2.4-3.6h4.8l-4.7,6.4l5.4,7.1h-5.1l-2.8-4.1l-2.8,4.1h-4.8l5.1-6.9L608.9,3.3z"/>
	<path class="st1" d="M624.3,10.1c-0.2-3.7,2.7-6.8,6.4-7c0.2,0,0.3,0,0.5,0c3.9,0,6.6,2.6,6.6,7.4c0,0.3,0,0.5,0,0.8h-9.5
		c0.3,1.5,1.7,2.5,3.2,2.4c1.2-0.1,2.3-0.8,2.9-1.9l3.2,1.9c-1.3,2.2-3.7,3.6-6.3,3.5C627.1,17.1,624.3,14.6,624.3,10.1z M631.1,6.5
		c-1.2-0.1-2.4,0.7-2.7,1.9h5.1C633.3,7.3,632.3,6.5,631.1,6.5z"/>
	<path class="st1" d="M639.4,7.4c0-2.6,2.2-4.4,5.2-4.4c1.9,0,3.7,1.2,4.4,3l-3.1,1.4c-0.3-0.7-1-1.1-1.7-1.1
		c-0.5-0.1-1,0.2-1.1,0.7c0,0,0,0.1,0,0.1c0,1.5,6.2,0.9,6.2,5.5c0,2.9-2.5,4.5-5.4,4.5c-2.1,0.2-4.1-0.9-5-2.8l3.1-1.6
		c0.4,0.7,1.1,1.1,1.9,1.2c0.6,0.1,1.2-0.3,1.4-0.9C645.4,11.3,639.4,12.2,639.4,7.4z"/>
</g>
<g>
	<path class="st1" d="M354.3,163.6v-16.8h7c4.3-0.1,7.9,3.3,8,7.6c0,0.2,0,0.4,0,0.6c0,4.9-3.3,8.6-7.9,8.6H354.3z M358.8,150.5v9.4
		h1.9c2.6,0,4.2-2.1,4.2-4.9c0.2-2.3-1.6-4.3-3.9-4.5c-0.1,0-0.1,0-0.2,0H358.8L358.8,150.5z"/>
	<path class="st1" d="M371,156.9c-0.2-3.7,2.7-6.8,6.4-7c0.2,0,0.3,0,0.5,0c3.9,0,6.6,2.6,6.6,7.4c0,0.3,0,0.5,0,0.8H375
		c0.3,1.5,1.7,2.5,3.2,2.4c1.2-0.1,2.3-0.8,2.9-1.9l3.2,1.9c-1.3,2.2-3.7,3.6-6.3,3.5C373.9,163.9,371,161.4,371,156.9z
		 M377.8,153.3c-1.2-0.1-2.4,0.7-2.7,1.9h5.1C380,154.1,379,153.3,377.8,153.3z"/>
	<path class="st1" d="M390.9,163.6h-4.1v-16.8h4.1V163.6z"/>
	<path class="st1" d="M393.4,146.7c0.3-1.4,1.6-2.2,2.9-2c1,0.2,1.8,1,2,2c0,1.4-1.1,2.5-2.5,2.5c-1.3,0-2.4-1.1-2.4-2.4
		C393.4,146.8,393.4,146.7,393.4,146.7z M397.9,163.6h-4.1v-13.5h4.1V163.6z"/>
	<path class="st1" d="M399.3,150.1h4.6l2.9,7.9l2.8-7.9h4.3l-5.3,13.5H405L399.3,150.1z"/>
	<path class="st1" d="M414.1,156.9c-0.2-3.7,2.7-6.8,6.4-7c0.2,0,0.3,0,0.5,0c3.9,0,6.6,2.6,6.6,7.4c0,0.3,0,0.5,0,0.8h-9.5
		c0.3,1.5,1.7,2.5,3.2,2.4c1.2-0.1,2.3-0.8,2.9-1.9l3.2,1.9c-1.3,2.2-3.7,3.6-6.3,3.5C417,163.9,414.1,161.4,414.1,156.9z
		 M420.9,153.3c-1.2-0.1-2.4,0.7-2.7,1.9h5.1C423.1,154.1,422.1,153.3,420.9,153.3L420.9,153.3z"/>
	<path class="st1" d="M436.6,153.8c-1.6,0-2.5,1-2.5,3.6v6.2H430v-13.5h4v2.1c0.5-1.4,1.7-2.3,3.2-2.4h0.8v4.2
		C437.6,153.8,437.1,153.8,436.6,153.8z"/>
	<path class="st1" d="M438.8,150.1h4.5l2.9,7l2.8-7h4.2l-7.8,18.2h-4.3l3-6.6L438.8,150.1z"/>
</g>
<g>
	<path class="st1" d="M762.8,151.5c0-3.4,2.8-5.4,5.8-5.4c1.9,0.1,3.8,0.7,5.4,1.8l-1.7,3.3c-1-0.7-2.2-1.2-3.4-1.3
		c-0.8-0.1-1.6,0.5-1.7,1.3c0,0.1,0,0.1,0,0.2c0,0.9,1,1.2,1.9,1.5l1.8,0.7c2.5,1,3.8,2.5,3.8,5.1s-3.3,5.5-6.7,5.5
		c-2.1-0.1-4.1-0.8-5.8-2.1l1.8-3.4c1.1,1,2.5,1.5,3.9,1.6c1.2,0,2.4-0.4,2.4-1.3s-0.1-1-1.8-1.6l-2.5-1
		C764,155.6,762.7,153.7,762.8,151.5z"/>
	<path class="st1" d="M776.7,150.1h4.1v7.7c-0.1,1.2,0.7,2.2,1.9,2.3c0.1,0,0.3,0,0.4,0c1.2,0.1,2.2-0.7,2.3-1.9c0-0.1,0-0.2,0-0.3
		v-7.8h4v8c0,3.8-2.4,5.8-6.3,5.8s-6.3-2.2-6.3-6L776.7,150.1L776.7,150.1z"/>
	<path class="st1" d="M792.2,150.1h4v1.5c1.1-1.1,2.7-1.8,4.3-1.7c3.8,0,6.1,3.2,6.1,7s-2.4,7.1-6.4,7.1c-1.5,0-2.9-0.5-4-1.5v5.6
		h-4.1v-18H792.2z M802.5,156.9c0.2-1.7-1.1-3.2-2.8-3.4c-0.1,0-0.2,0-0.3,0c-1.8-0.1-3.4,1.3-3.5,3.1c-0.1,1.8,1.3,3.4,3.1,3.5
		C800.8,160.2,802.4,158.8,802.5,156.9C802.5,157,802.5,156.9,802.5,156.9z"/>
	<path class="st1" d="M808.9,150.1h4v1.5c1.1-1.1,2.7-1.8,4.3-1.7c3.8,0,6.1,3.2,6.1,7s-2.4,7.1-6.4,7.1c-1.5,0-2.9-0.5-4-1.5v5.6
		h-4.1v-18H808.9z M819.2,156.9c0.2-1.7-1.1-3.2-2.8-3.4c-0.1,0-0.2,0-0.3,0c-1.8-0.1-3.4,1.3-3.5,3.1c-0.1,1.8,1.3,3.4,3.1,3.5
		C817.5,160.2,819.1,158.8,819.2,156.9C819.2,157,819.2,156.9,819.2,156.9z"/>
	<path class="st1" d="M829.7,163.6h-4.1v-16.8h4.1V163.6z"/>
	<path class="st1" d="M831.2,150.1h4.5l2.9,7l2.8-7h4.2l-7.8,18.2h-4.3l3-6.6L831.2,150.1z"/>
</g>
<g>
	<path class="st1" d="M762.5,177.7v-5.4h1.6v5.4c-0.1,0.9,0.6,1.6,1.5,1.7c0.1,0,0.1,0,0.2,0c0.9,0.1,1.6-0.6,1.7-1.5
		c0-0.1,0-0.2,0-0.3v-5.3h1.5v5.3c0.1,1.7-1.1,3.1-2.8,3.2c-0.1,0-0.3,0-0.4,0C763.5,180.8,762.5,179.5,762.5,177.7z"/>
	<path class="st1" d="M772.5,174.6v6h-1.6v-8.4h1.6l4.3,6.1v-6.1h1.6v8.4h-1.6L772.5,174.6z"/>
	<path class="st1" d="M781.8,177.1v3.6h-1.6v-8.4h2.9c1.3-0.1,2.4,1,2.5,2.3c0,0.1,0,0.1,0,0.2c0,1.2-0.9,2.2-2.1,2.3l2.7,3.6h-2
		L781.8,177.1z M781.8,173.6v2.6h1c0.7,0,1.2-0.5,1.2-1.2c0,0,0-0.1,0-0.1c0-0.7-0.5-1.2-1.2-1.2c0,0-0.1,0-0.1,0h-0.8L781.8,173.6z
		"/>
	<path class="st1" d="M787.4,180.7v-8.4h4.6v1.3h-3v2.1h2.9v1.3H789v2.2h2.9v1.3h-4.5V180.7z"/>
	<path class="st1" d="M801.5,176.2c0,2.4-1.2,4.6-4.1,4.6c-2.4,0-4.4-2-4.4-4.4c0-2.4,2-4.4,4.4-4.4c1.5,0,3,0.7,3.8,2l-1.3,1
		c-0.5-0.9-1.5-1.4-2.5-1.5c-1.5,0.1-2.8,1.4-2.7,2.9c0,0,0,0,0,0c-0.1,1.5,1.1,2.7,2.6,2.8c0,0,0.1,0,0.1,0
		c1.1,0.1,2.1-0.7,2.3-1.8h-2.3V176h4.1V176.2z"/>
	<path class="st1" d="M802.9,177.7v-5.4h1.6v5.4c-0.1,0.9,0.6,1.6,1.5,1.7c0.1,0,0.1,0,0.2,0c0.9,0.1,1.6-0.6,1.7-1.5
		c0-0.1,0-0.2,0-0.3v-5.3h1.6v5.3c0.1,1.7-1.1,3.1-2.8,3.2c-0.1,0-0.3,0-0.4,0C803.9,180.8,802.9,179.5,802.9,177.7z"/>
	<path class="st1" d="M811.4,180.7v-8.4h1.6v7h2.6v1.4H811.4L811.4,180.7z"/>
	<path class="st1" d="M816.3,180.7l3.3-8.4h1.7l3.2,8.4h-1.8l-0.6-1.7h-3.5l-0.7,1.7H816.3L816.3,180.7z M820.5,174.1l-1.3,3.6h2.6
		L820.5,174.1z"/>
	<path class="st1" d="M827.7,173.7v6.9h-1.6v-6.9h-1.7v-1.5h5v1.5H827.7z"/>
	<path class="st1" d="M830.5,180.7v-8.4h4.6v1.3h-3v2.1h2.9v1.3h-2.9v2.2h2.9v1.3h-4.5V180.7z"/>
	<path class="st1" d="M840.1,180.7h-3.4v-8.4h3.1c2.2,0.1,3.9,1.8,3.8,4c0,0,0,0.1,0,0.1C843.7,178.8,842.2,180.7,840.1,180.7z
		 M838.3,173.6v5.7h1.5c0.9,0,2.2-0.8,2.2-2.9s-1.4-2.9-2.2-2.9L838.3,173.6L838.3,173.6z"/>
</g>
<g>
	<path class="st1" d="M372.3,177.1v3.6h-1.6v-8.4h2.9c1.3-0.1,2.4,1,2.5,2.3c0,0.1,0,0.1,0,0.2c0,1.2-0.9,2.2-2.1,2.3l2.7,3.6h-2
		L372.3,177.1z M372.3,173.6v2.6h1c0.7,0,1.2-0.5,1.2-1.2c0,0,0-0.1,0-0.1c0-0.7-0.5-1.2-1.2-1.2c0,0-0.1,0-0.1,0h-0.8L372.3,173.6z
		"/>
	<path class="st1" d="M377.9,180.7v-8.4h4.6v1.3h-3v2.1h2.9v1.3h-2.9v2.2h2.9v1.3h-4.5V180.7z"/>
	<path class="st1" d="M392.1,176.2c0,2.4-1.2,4.6-4.1,4.6c-2.4,0-4.4-2-4.4-4.4c0-2.4,2-4.4,4.4-4.4c1.5,0,3,0.7,3.8,2l-1.3,1
		c-0.5-0.9-1.5-1.4-2.5-1.5c-1.5,0.1-2.8,1.4-2.7,2.9c0,0,0,0,0,0c-0.1,1.5,1.1,2.7,2.6,2.8c0,0,0.1,0,0.1,0
		c1.1,0.1,2.1-0.7,2.3-1.8H388V176h4.1V176.2z"/>
	<path class="st1" d="M393.4,177.7v-5.4h1.6v5.4c-0.1,0.9,0.6,1.6,1.5,1.7c0.1,0,0.1,0,0.2,0c0.9,0.1,1.6-0.6,1.7-1.5
		c0-0.1,0-0.2,0-0.3v-5.3h1.6v5.3c0.1,1.7-1.1,3.1-2.8,3.2c-0.1,0-0.3,0-0.4,0C394.4,180.8,393.4,179.5,393.4,177.7z"/>
	<path class="st1" d="M401.9,180.7v-8.4h1.6v7h2.6v1.4H401.9z"/>
	<path class="st1" d="M406.8,180.7l3.3-8.4h1.7l3.2,8.4h-1.8l-0.6-1.7h-3.5l-0.7,1.7H406.8L406.8,180.7z M411,174.1l-1.3,3.6h2.6
		L411,174.1z"/>
	<path class="st1" d="M418.2,173.7v6.9h-1.6v-6.9h-1.7v-1.5h5v1.5H418.2L418.2,173.7z"/>
	<path class="st1" d="M421,180.7v-8.4h4.6v1.3h-3v2.1h2.9v1.3h-2.9v2.2h2.9v1.3H421V180.7z"/>
	<path class="st1" d="M430.6,180.7h-3.4v-8.4h3.1c2.2,0.1,3.9,1.8,3.8,4c0,0,0,0.1,0,0.1C434.2,178.8,432.7,180.7,430.6,180.7z
		 M428.8,173.6v5.7h1.5c0.9,0,2.2-0.8,2.2-2.9s-1.4-2.9-2.2-2.9h-1.6L428.8,173.6z"/>
</g>
<g>
	<path class="st2" d="M699.4,75c-19.5-19.6-44.8-32.4-72.1-36.4L612,164.9l-0.2,1.5c-0.1,0.5-0.3,0.9-0.6,1.2L520,263.1
		c51.6,47.2,131.5,44.8,180.1-5.5c6.1-6.3,11.6-13.3,16.3-20.7C749.7,185.7,742.6,118.2,699.4,75z"/>
	<path class="st3" d="M611.6,37.2l-0.9,89.6l9.6-89C617.4,37.5,614.5,37.3,611.6,37.2z"/>
</g>
<g>
	<path class="st4" d="M597,37.6l-20.1,6.9l0,0l-0.9,0.3l-40,13.8c-3.2,2.1-6.4,4.4-9.6,6.9l49.8-17.2l0,0l0.9-0.3l26.9-9.2v-1.6
		C604,37.2,601.4,37.2,597,37.6z"/>
	<path class="st4" d="M580.2,54.2l-0.9,0.3L514,77l0,0l-0.7,0.7l-4,4.6l5-1.7l0.9-0.3l0,0l65.3-22.5l0.9-0.3l0,0l22.6-7.8V46
		L580.2,54.2L580.2,54.2L580.2,54.2z"/>
	<path class="st4" d="M600.3,112.4l-0.9,0.3l-66.2,22.8l-0.9,0.3l0,0L479,154.2c-0.1,1.3-0.2,2.5-0.3,3.8l55.7-19.2l0.9-0.3l0,0
		l64.5-22.2l0,0l0.9-0.3l3.4-1.2v-3.7l-3.7,1.3l0,0L600.3,112.4z"/>
	<path class="st4" d="M603.6,122.1l-0.9,0.3l-65.3,22.5l0,0l-0.9,0.3l-58.1,20c0,1.2,0,2.4,0,3.6l58.4-20.1l0,0l0.9-0.3L603,126l0,0
		l0.9-0.3h0.1V122h-0.4V122.1z"/>
	<path class="st4" d="M581.8,64.5L581.8,64.5L516.5,87l-0.9,0.3l0,0l-13.8,4.8l-1.6,2.4l-1.5,2.4l18.9-6.5l0.9-0.3l0,0l65.3-22.5
		l0.9-0.3l0,0l19.3-6.8v-3.6l-21.3,7.3L581.8,64.5z"/>
	<path class="st4" d="M585.2,74.2L585.2,74.2l-65.3,22.5L519,97l0,0l-25.5,8.8l-2.3,4.4L521,100l0.9-0.3l0,0l65.3-22.5l0.9-0.3l0,0
		l15.9-5.5v-3.7l-18,6.2L585.2,74.2z"/>
	<path class="st4" d="M588.5,83.9L588.5,83.9l-65.3,22.5l-0.9,0.3l0,0l-34.9,12l-1.5,4.2l38.4-13.2l0.9-0.3l0,0l65.3-22.5l0.9-0.3
		l0,0l12.6-4.4v-3.6l-14.6,5L588.5,83.9z"/>
	<path class="st4" d="M591.8,93.6L591.8,93.6l-65.3,22.5l-0.9,0.3l0,0L483.3,131l-1.1,4l45.3-15.6l0.9-0.3l0,0l65.4-22.5l0.9-0.3
		l0,0l9.3-3.2v-3.7l-11.2,3.9L591.8,93.6z"/>
	<path class="st4" d="M595.2,103.3L595.2,103.3l-65.3,22.5l-0.9,0.3l0,0l-48.4,16.7c-0.3,1.3-0.5,2.6-0.7,3.9l51-17.6l0.9-0.3l0,0
		l65.3-22.5l0.9-0.3l0,0l5.9-2v-3.7L596,103L595.2,103.3z"/>
	<path class="st4" d="M540.7,154.6l-0.9,0.3L478.7,176v1.8l0.2,1.8l61.1-21l0,0l0.9-0.3l63.1-21.8v-3.7L540.7,154.6L540.7,154.6z"/>
	<path class="st4" d="M544.1,164.3l-0.9,0.3L480,186.4c0.2,1.2,0.4,2.3,0.6,3.4l62.9-21.7l0,0l0.9-0.3l59.6-20.4v-3.7L544.1,164.3
		L544.1,164.3L544.1,164.3z"/>
	<path class="st4" d="M547.4,174l-0.9,0.3L482,196.5l0.9,3.4l63.9-22l0,0l0.9-0.3l56.3-19.4v-3.6l-56.5,19.5l0,0L547.4,174z"/>
	<path class="st4" d="M549,184.3L549,184.3l-64.1,22.1l1.1,3.3l65-22.4l0.9-0.3l0,0l44.6-15.4l5.5-5.5L549.9,184L549,184.3z"/>
	<path class="st4" d="M552.4,194L552.4,194l-63.9,22l1.4,3.2l64.5-22.2l0.9-0.3l0,0l25-8.6l5.5-5.5l-32.4,11.2L552.4,194z"/>
	<path class="st4" d="M555.7,203.7L555.7,203.7l-62.9,21.6l1.6,3.1l63.2-21.8l0.9-0.3l0,0l5.3-1.8l5.5-5.5l-12.8,4.4L555.7,203.7z"
		/>
	<path class="st4" d="M499.8,237.5l47.7-16.4l5.5-5.5l-55.1,19L499.8,237.5z"/>
	<path class="st4" d="M504.9,244.8l1.1,1.5l25.2-8.7l2.7-2.8l2.7-2.8l-32.9,11.3L504.9,244.8z"/>
	<path class="st4" d="M513.1,254.6l1.8-0.6l5.5-5.5l-9.8,3.4L513.1,254.6z"/>
</g>
</svg>
