<svg xmlns="http://www.w3.org/2000/svg" xmlns:xlink="http://www.w3.org/1999/xlink" xml:space="preserve" version="1.1" style="shape-rendering:geometricPrecision;text-rendering:geometricPrecision;image-rendering:optimizeQuality;" viewBox="0 0 356 283.75" x="0px" y="0px" fill-rule="evenodd" clip-rule="evenodd"><defs><style type="text/css">
   
    .fil0 {fill:black;fill-rule:nonzero}
   
  </style></defs><g><path class="fil0" d="M306 87c30,10 50,38 50,69 0,39 -33,71 -72,71l-212 0c-40,0 -72,-32 -72,-71 0,-37 27,-68 64,-72 4,-25 20,-45 43,-54 22,-9 47,-7 66,6 18,-33 55,-43 88,-31 34,13 54,46 45,82zm-12 15c-5,-1 -8,-7 -7,-12 12,-30 -2,-58 -32,-69 -29,-11 -58,0 -70,30 -2,6 -9,8 -14,4 -16,-14 -38,-18 -57,-10 -20,8 -33,26 -34,47 0,5 -4,9 -9,9 -30,0 -54,24 -54,55 0,30 25,55 55,55l212 0c30,0 55,-25 55,-55 0,-27 -19,-49 -45,-54z"/></g><text x="0" y="242" fill="#000000" font-size="5px" font-weight="bold" font-family="'Helvetica Neue', Helvetica, Arial-Unicode, Arial, Sans-serif">Created by Saifurrijal</text><text x="0" y="247" fill="#000000" font-size="5px" font-weight="bold" font-family="'Helvetica Neue', Helvetica, Arial-Unicode, Arial, Sans-serif">from the Noun Project</text></svg>