<svg xmlns="http://www.w3.org/2000/svg" xmlns:xlink="http://www.w3.org/1999/xlink" version="1.1" x="0px" y="0px" viewBox="0 0 512 640" style="enable-background:new 0 0 512 512;" xml:space="preserve"><title>Brain Flow</title><g><path d="M501.5,251.3c-3.3-17.4-20.1-28.8-37.5-25.5c-12.9,2.5-23.1,12.6-25.5,25.5H205.2v12h233.2c3.3,17.4,20.1,28.8,37.5,25.5   S504.8,268.7,501.5,251.3z M484.1,271.4c-7.8,7.8-20.5,7.8-28.4,0c0,0,0,0,0,0c-7.8-7.8-7.9-20.5-0.1-28.3c0,0,0.1-0.1,0.1-0.1   c7.8-7.8,20.5-7.8,28.4,0C491.9,250.9,491.9,263.6,484.1,271.4z"/><path d="M283,197.2c0-11.3,9.2-20.5,20.6-20.6H355c3.3,17.4,20.1,28.8,37.5,25.5s28.8-20.1,25.5-37.5   c-3.3-17.4-20.1-28.8-37.5-25.5c-12.9,2.5-23.1,12.6-25.5,25.5h-51.5c-18,0-32.5,14.6-32.6,32.6c0,11.3-9.2,20.5-20.6,20.6h-45.3   v12h45.3C268.4,229.8,283,215.2,283,197.2z M372.2,156.6C372.3,156.5,372.3,156.5,372.2,156.6c7.9-7.9,20.6-7.9,28.5-0.1   c7.8,7.8,7.8,20.5,0,28.4c-7.8,7.8-20.5,7.8-28.4,0C364.5,177.1,364.5,164.4,372.2,156.6z"/><path d="M380.6,312.3c-12.9,2.5-23.1,12.6-25.5,25.5h-51.5c-11.3,0-20.5-9.2-20.6-20.6c0-18-14.6-32.5-32.6-32.6h-45.3v12h45.3   c11.3,0,20.5,9.2,20.6,20.6c0,18,14.6,32.5,32.6,32.6H355c3.3,17.4,20.1,28.9,37.5,25.5c17.4-3.3,28.9-20.1,25.5-37.5   S398,309,380.6,312.3z M400.7,358c-7.8,7.8-20.5,7.8-28.4,0c-7.7-7.8-7.7-20.5,0-28.4h0c7.8-7.8,20.5-7.8,28.4,0   C408.5,337.5,408.5,350.2,400.7,358z"/><path d="M321.9,382.8c-12.7,3.7-21.8,14.7-23,27.8h-7c-11.5,0-21.7-7.2-25.7-17.9l-17.3-46.6c-5.8-15.4-20.5-25.7-37-25.7h-6.7   l0,12h6.7c11.5,0,21.7,7.2,25.7,17.9l17.3,46.6c5.8,15.4,20.5,25.7,37,25.7h8.2c5,17,22.8,26.8,39.8,21.9c17-5,26.8-22.8,21.9-39.8   C356.8,387.6,338.9,377.8,321.9,382.8z M345,427.8c-7.8,7.8-20.5,7.8-28.4,0c0,0,0,0,0,0c-7.8-7.8-7.9-20.5-0.1-28.3   c0,0,0.1-0.1,0.1-0.1c7.8-7.8,20.5-7.8,28.4,0C352.8,407.3,352.8,420,345,427.8z"/><path d="M248.9,168.4l17.3-46.6c4-10.7,14.3-17.9,25.7-17.9h7c1.7,17.6,17.3,30.6,34.9,28.9c17.6-1.7,30.6-17.3,28.9-34.9   c-1.7-17.6-17.3-30.6-34.9-28.9c-13.1,1.2-24.1,10.3-27.8,22.9h-8.2c-16.5,0-31.2,10.3-37,25.7l-17.3,46.6   c-4,10.7-14.3,17.9-25.7,17.9h-6.7v12h6.7C228.4,194.1,243.1,183.8,248.9,168.4z M316.5,86.8C316.5,86.7,316.6,86.7,316.5,86.8   L316.5,86.8c7.9-7.9,20.6-7.9,28.5-0.1c7.8,7.8,7.8,20.5,0,28.4c-7.8,7.8-20.5,7.8-28.4,0c0,0,0,0,0,0   C308.8,107.3,308.7,94.6,316.5,86.8z"/><path d="M155.4,66.2c-21.8-0.1-39.5,17.6-39.6,39.4c0,2.4,0.2,4.7,0.6,7.1c-31.7-8.9-64.6,9.6-73.4,41.3c-2.9,10.5-2.9,21.7,0,32.2   c-22.3,10-32.3,36.2-22.2,58.6c2.5,5.6,6.2,10.6,10.7,14.7C17.9,270.8,10,287.6,10,305.4c0,24.9,15.5,47.2,38.8,55.9v15.1   c0,25.5,20.6,46.2,46.1,46.2c8.1,0,16.1-2.1,23.1-6.2c19.1,16.9,48.3,15,65.2-4.1c7.4-8.4,11.5-19.3,11.5-30.5V105.8   C194.8,84,177.2,66.3,155.4,66.2z M182.7,381.7c0,18.9-15.3,34.2-34.1,34.2c-7.5,0-14.8-2.5-20.8-7.1c8.6-8.6,13.4-20.3,13.4-32.5   c0-3.3-2.7-6-6-6s-6,2.7-6,6c0,18.9-15.3,34.2-34.2,34.2c-18.9,0-34.2-15.3-34.2-34.2v-12.1c2.9,0.4,5.8,0.6,8.7,0.6   c3.3,0,6-2.7,6-6s-2.7-6-6-6c-26.3-0.1-47.5-21.5-47.4-47.8c0.1-26.1,21.3-47.2,47.4-47.4c3.3,0,6-2.7,6-6s-2.7-6-6-6   c-9.6,0-19.1,2.3-27.6,6.8c-3-2.2-5.6-5-7.7-8.1c-9.9-14.9-5.8-34.9,9-44.8c1.3-0.9,2.7-1.6,4.1-2.3c0.4,0.8,0.9,1.6,1.3,2.5   c1.7,2.9,5.3,3.8,8.2,2.2c2.9-1.7,3.8-5.3,2.2-8.2c-13.1-22.8-5.3-51.9,17.4-65c16.4-9.4,36.8-8.3,52,2.9c2.7,2,6.4,1.4,8.4-1.2   s1.4-6.4-1.2-8.4c0,0,0,0,0,0c-1.5-1.1-2.9-2.1-4.5-3c-7.4-13.3-2.6-30,10.7-37.4s30-2.6,37.4,10.7c2.3,4.1,3.5,8.7,3.5,13.3V381.7   z"/><path d="M165.3,257.8c0,0-0.1-0.1-0.1-0.1c-5.4-3.9-11.9-6-18.6-6l0,0c1.3-8.8-1.1-17.8-6.6-24.7c-2.1-2.6-5.8-3-8.4-1   s-3,5.8-1,8.4c0,0,0,0,0,0.1c4.5,5.7,5.6,13.3,2.8,20c-12.8,5.8-20.4,19.3-18.6,33.2c0.4,3.3,3.4,5.6,6.7,5.2s5.6-3.4,5.2-6.7   c-0.4-3-0.1-6,0.8-8.8c3.5-10.4,14.7-16.1,25.2-12.6c1.9,0.6,3.7,1.6,5.4,2.7c2.7,2,6.4,1.4,8.4-1.3   C168.5,263.5,168,259.8,165.3,257.8z"/><path d="M76.6,215.1c3.8-6,4.9-13.4,3.1-20.3c-0.8-3.2-4.1-5.1-7.3-4.3s-5.1,4.1-4.3,7.3c1.7,6.5-1.5,13.3-7.5,16.2   c-3,1.4-4.2,5-2.8,8c1.4,3,5,4.2,8,2.8c0,0,0,0,0.1,0c0.5-0.2,0.9-0.5,1.3-0.7c1.3,2.5,2.9,4.7,4.9,6.7c2.4,2.3,6.2,2.3,8.5-0.1   c2.3-2.4,2.3-6.2-0.1-8.5C78.5,220.3,77.2,217.8,76.6,215.1z"/><path d="M111.2,158.6L111.2,158.6c7.6-1.9,15.3,2.6,17.2,10.2c0.5,2.1,0.6,4.2,0.2,6.3c-0.3,1.4-0.8,2.8-1.5,4   c-1.6,2.9-0.6,6.5,2.3,8.2c2.9,1.6,6.5,0.6,8.2-2.3c0,0,0-0.1,0.1-0.1c2.4-4.4,3.5-9.3,3.2-14.2c6.8-0.2,13.2-3,18-7.8   c2.3-2.4,2.2-6.2-0.2-8.5c-2.4-2.3-6.1-2.2-8.4,0.1c-3.5,3.6-8.6,5-13.4,3.8c-0.1-0.2-0.2-0.3-0.3-0.5   c-6.2-9.3-17.5-13.6-28.3-10.9c-3.2,0.8-5.1,4.1-4.3,7.3C104.7,157.5,108,159.5,111.2,158.6z"/><path d="M128.9,329.8c-7.7,5.4-17.8,6.1-26.2,1.8c-1.9-5.2-4.9-10-8.8-13.9c-2.3-2.3-6.1-2.3-8.5,0s-2.3,6.1,0,8.5   c3,3,5.2,6.7,6.4,10.8c0,0.2,0.1,0.4,0.2,0.6c2.1,7.9,0.3,16.4-4.9,22.7c-2.1,2.6-1.7,6.4,0.9,8.4c2.5,2.1,6.3,1.7,8.4-0.8   c5.3-6.4,8.3-14.5,8.5-22.8c10.6,2.8,21.9,0.8,30.9-5.5c2.7-1.9,3.4-5.6,1.5-8.4S131.6,327.9,128.9,329.8z"/></g><text x="0" y="527" fill="#000000" font-size="5px" font-weight="bold" font-family="'Helvetica Neue', Helvetica, Arial-Unicode, Arial, Sans-serif">Created by Icongeek26</text><text x="0" y="532" fill="#000000" font-size="5px" font-weight="bold" font-family="'Helvetica Neue', Helvetica, Arial-Unicode, Arial, Sans-serif">from the Noun Project</text></svg>